<svg width="257" height="80" viewBox="0 0 257 80" fill="none" xmlns="http://www.w3.org/2000/svg">
<path d="M68.7203 18.2349L70.5029 9.02484H61.3588L59.6423 18.2349H68.7203Z" fill="white"/>
<path d="M43.2193 9L25.5336 41.8295L20.8378 9H11.636L18.7994 54.1014L12.5108 65.68H22.8432L52.9081 9H43.2193Z" fill="white"/>
<path d="M140.379 18.2349L142.17 9.02484H133.026L131.309 18.2349H140.379Z" fill="white"/>
<path d="M129.956 25.5055L122.471 65.68H131.615L139.042 25.5055H129.956Z" fill="white"/>
<path d="M58.2889 25.5055L50.8036 65.68H59.9477L67.3752 25.5055H58.2889Z" fill="white"/>
<path d="M124.484 9.02484L88.1226 56.47H114.036L112.212 65.6718H68.4976L105.693 18.2349H79.6058L81.4214 9.02484H124.476H124.484Z" fill="white"/>
<path d="M168.455 39.8182L154.528 66H151.29L146.091 39.8182H149.244L153.335 61.9943H153.557L165.028 39.8182H168.455ZM170.061 66L174.425 39.8182H177.476L173.112 66H170.061ZM177.05 35.267C176.413 35.267 175.874 35.0511 175.43 34.6193C174.999 34.1875 174.788 33.6648 174.8 33.0511C174.822 32.4716 175.055 31.9716 175.499 31.5511C175.953 31.1193 176.487 30.9034 177.101 30.9034C177.737 30.9034 178.277 31.125 178.72 31.5682C179.163 32 179.374 32.5227 179.351 33.1364C179.339 33.7159 179.107 34.2159 178.652 34.6364C178.197 35.0568 177.663 35.267 177.05 35.267ZM191.653 66.5455C189.21 66.5455 187.193 65.9773 185.602 64.8409C184.011 63.6932 182.898 62.108 182.261 60.0852C181.625 58.0511 181.528 55.7102 181.972 53.0625C182.415 50.4261 183.29 48.0852 184.597 46.0398C185.903 43.983 187.517 42.375 189.438 41.2159C191.358 40.0455 193.443 39.4602 195.693 39.4602C197.114 39.4602 198.443 39.7216 199.682 40.2443C200.92 40.7557 201.972 41.5455 202.835 42.6136C203.71 43.6705 204.318 45.0057 204.659 46.6193C205 48.2216 204.989 50.1193 204.625 52.3125L204.386 53.8125H183.932L184.358 51.1364H201.727C202.011 49.4545 201.932 47.9432 201.489 46.6023C201.045 45.2614 200.29 44.1989 199.222 43.4148C198.165 42.6193 196.852 42.2216 195.284 42.2216C193.682 42.2216 192.165 42.6705 190.733 43.5682C189.313 44.4659 188.108 45.6364 187.119 47.0795C186.142 48.5114 185.511 50.0398 185.227 51.6648L184.886 53.6761C184.523 55.892 184.568 57.75 185.023 59.25C185.477 60.7386 186.301 61.8636 187.494 62.625C188.688 63.3864 190.216 63.767 192.08 63.767C193.33 63.767 194.46 63.5739 195.472 63.1875C196.483 62.8011 197.364 62.2841 198.114 61.6364C198.864 60.9773 199.466 60.2557 199.92 59.4716L202.631 60.4091C202.051 61.5114 201.233 62.5284 200.176 63.4602C199.131 64.392 197.886 65.142 196.443 65.7102C195.011 66.267 193.415 66.5455 191.653 66.5455ZM214.839 66L211.294 39.8182H214.482L217.089 61.4148H217.311L227.095 39.8182H230.317L232.857 61.3636H233.095L242.879 39.8182H246.118L233.845 66H230.709L228.05 44.5739H227.726L217.976 66H214.839Z" fill="white"/>
</svg>
